<?xml version="1.0" standalone="no"?>
<!DOCTYPE svg PUBLIC "-//W3C//DTD SVG 20010904//EN"
 "http://www.w3.org/TR/2001/REC-SVG-20010904/DTD/svg10.dtd">
<svg version="1.0" xmlns="http://www.w3.org/2000/svg"
 width="721.000000pt" height="721.000000pt" viewBox="0 0 721.000000 721.000000"
 preserveAspectRatio="xMidYMid meet">
<metadata>
Created by potrace 1.14, written by Peter Selinger 2001-2017
Enhanced with stroke effects for Burner Super App
</metadata>
<defs>
  <!-- Enhanced gradient for orange section -->
  <linearGradient id="orangeGradient" x1="0%" y1="0%" x2="100%" y2="100%">
    <stop offset="0%" style="stop-color:#FF6B1A;stop-opacity:1" />
    <stop offset="50%" style="stop-color:#F35E0C;stop-opacity:1" />
    <stop offset="100%" style="stop-color:#D14A00;stop-opacity:1" />
  </linearGradient>

  <!-- Enhanced gradient for blue section -->
  <linearGradient id="blueGradient" x1="0%" y1="0%" x2="100%" y2="100%">
    <stop offset="0%" style="stop-color:#B8D4E8;stop-opacity:1" />
    <stop offset="50%" style="stop-color:#9AC1DE;stop-opacity:1" />
    <stop offset="100%" style="stop-color:#7CAFD4;stop-opacity:1" />
  </linearGradient>

  <!-- Glow effect filter -->
  <filter id="glow" x="-50%" y="-50%" width="200%" height="200%">
    <feGaussianBlur stdDeviation="4" result="coloredBlur"/>
    <feMerge>
      <feMergeNode in="coloredBlur"/>
      <feMergeNode in="SourceGraphic"/>
    </feMerge>
  </filter>

  <!-- Drop shadow filter -->
  <filter id="dropshadow" x="-50%" y="-50%" width="200%" height="200%">
    <feGaussianBlur in="SourceAlpha" stdDeviation="3"/>
    <feOffset dx="2" dy="2" result="offset"/>
    <feComponentTransfer>
      <feFuncA type="linear" slope="0.5"/>
    </feComponentTransfer>
    <feMerge>
      <feMergeNode/>
      <feMergeNode in="SourceGraphic"/>
    </feMerge>
  </filter>
</defs>

<g transform="translate(0.000000,721.000000) scale(0.100000,-0.100000)">
  <!-- Background circle for better contrast -->
  <circle cx="3605" cy="3605" r="3400" fill="rgba(255,255,255,0.1)" stroke="rgba(255,255,255,0.2)" stroke-width="20"/>

  <!-- Enhanced orange path with gradient, stroke, and effects -->
  <path stroke="#FFFFFF" stroke-miterlimit="10" stroke-width="50" stroke-linejoin="round" stroke-linecap="round"
        fill="url(#orangeGradient)" filter="url(#dropshadow)"
        d="M2111 6706 l-494 -494 0 -1861 0 -1861 1241 -1240 c682 -682 1242
        -1240 1245 -1240 3 0 6 316 6 702 l-1 702 -746 747 -747 747 0 2146 c0 1180
        -2 2146 -5 2146 -3 0 -228 -222 -499 -494z"/>

  <!-- Inner stroke for orange path -->
  <path stroke="#D14A00" stroke-miterlimit="10" stroke-width="20" stroke-linejoin="round" stroke-linecap="round"
        fill="none"
        d="M2111 6706 l-494 -494 0 -1861 0 -1861 1241 -1240 c682 -682 1242
        -1240 1245 -1240 3 0 6 316 6 702 l-1 702 -746 747 -747 747 0 2146 c0 1180
        -2 2146 -5 2146 -3 0 -228 -222 -499 -494z"/>

  <!-- Enhanced blue path with gradient, stroke, and effects -->
  <path stroke="#FFFFFF" stroke-miterlimit="10" stroke-width="50" stroke-linejoin="round" stroke-linecap="round"
        fill="url(#blueGradient)" filter="url(#dropshadow)"
        d="M3609 5474 c0 -22 0 -340 -1 -708 l0 -669 497 -497 498 -498 0 -1302
        0 -1302 499 499 498 498 0 1014 0 1013 -995 996 -995 995 -1 -39z"/>

  <!-- Inner stroke for blue path -->
  <path stroke="#7CAFD4" stroke-miterlimit="10" stroke-width="20" stroke-linejoin="round" stroke-linecap="round"
        fill="none"
        d="M3609 5474 c0 -22 0 -340 -1 -708 l0 -669 497 -497 498 -498 0 -1302
        0 -1302 499 499 498 498 0 1014 0 1013 -995 996 -995 995 -1 -39z"/>

  <!-- Highlight overlay for extra glow -->
  <g filter="url(#glow)" opacity="0.8">
    <path stroke="#FFB366" stroke-miterlimit="10" stroke-width="15" stroke-linejoin="round" stroke-linecap="round"
          fill="none" opacity="0.6"
          d="M2111 6706 l-494 -494 0 -1861 0 -1861 1241 -1240 c682 -682 1242
          -1240 1245 -1240 3 0 6 316 6 702 l-1 702 -746 747 -747 747 0 2146 c0 1180
          -2 2146 -5 2146 -3 0 -228 -222 -499 -494z"/>

    <path stroke="#C8E0F0" stroke-miterlimit="10" stroke-width="15" stroke-linejoin="round" stroke-linecap="round"
          fill="none" opacity="0.6"
          d="M3609 5474 c0 -22 0 -340 -1 -708 l0 -669 497 -497 498 -498 0 -1302
          0 -1302 499 499 498 498 0 1014 0 1013 -995 996 -995 995 -1 -39z"/>
  </g>
</g>
</svg>